# xmcd
#
# Track frame offsets:
#	150
#	15974
#	28520
#	45336
#	61572
#	78216
#	90740
#	105262
#	119811
#	136611
#	152999
#	169935
#	183611
#	200535
#	216284
#
# Disc length: 3110 seconds
#
# Revision: 0
# Processed by: cddbd v1.5.2PL0 Copyright (c) Steve Scherf et al.
# Submitted via: EZCDAudioConverter 2.0.4.1
#
DISCID=b90c240f
DTITLE=Industria Del Amor - La Mas Completa Coleccion
DYEAR=1900
DGENRE=
TTITLE0=Me Quede Llorando
TTITLE1=Voy A Tirarme Al Vicio
TTITLE2=Enamorado De Tus Ojos
TTITLE3=Rosas Rojas
TTITLE4=Y Tu Con El
TTITLE5=De Muchas Cosas Tengo Miedo
TTITLE6=Te Amare
TTITLE7=Procuro Olvidarte
TTITLE8=Pequeña Y Fragil
TTITLE9=Siempre Te Voy A Querer
TTITLE10=Amada Mia
TTITLE11=Otra Vez Enamorados
TTITLE12=Siempre Te Amare	3:46	Industria Del Amor	La Más Completa Colección ([
TTITLE12=Disc 1] - Mexico)	Latin\nSiempre Te Amare	3:46	Industria Del Amor	La 
TTITLE12=Más Completa Colección ([Disc 1] - Mexico)	Latin\nSiempre Te Amare
TTITLE13=Siempre Te Amare	3:46	Industria Del Amor	La Más Completa Colección ([
TTITLE13=Disc 1] - Mexico)	Latin\nSiempre Te Amare	3:46	Industria Del Amor	La 
TTITLE13=Más Completa Colección ([Disc 1] - Mexico)	Latin\nSiempre Te Amare
TTITLE14=Nunca Dejare De Quererte
EXTD=
EXTT0=
EXTT1=
EXTT2=
EXTT3=
EXTT4=
EXTT5=
EXTT6=
EXTT7=
EXTT8=
EXTT9=
EXTT10=
EXTT11=
EXTT12=
EXTT13=
EXTT14=
PLAYORDER=
